<mxfile host="app.diagrams.net" modified="2021-07-10T22:55:41.350Z" agent="5.0 (X11; Linux x86_64) AppleWebKit/537.36 (KHTML, like Gecko) Chrome/91.0.4472.114 Safari/537.36" etag="OAbwlJ4Vcd3p_lFxKZGy" version="14.8.5" type="github">
  <diagram id="OjX7OGXNQCsDIuZp0Mso" name="Page-1">
    <mxGraphModel dx="813" dy="443" grid="1" gridSize="10" guides="1" tooltips="1" connect="1" arrows="1" fold="1" page="1" pageScale="1" pageWidth="850" pageHeight="1100" math="0" shadow="0">
      <root>
        <mxCell id="0" />
        <mxCell id="1" parent="0" />
        <mxCell id="6zze8KN9016CIVqn-qtB-1" value="desafio_parceria_digital" style="shape=datastore;whiteSpace=wrap;html=1;" vertex="1" parent="1">
          <mxGeometry x="395" y="90" width="60" height="60" as="geometry" />
        </mxCell>
        <mxCell id="6zze8KN9016CIVqn-qtB-2" value="Produtos" style="shape=table;startSize=30;container=1;collapsible=1;childLayout=tableLayout;fixedRows=1;rowLines=0;fontStyle=1;align=center;resizeLast=1;" vertex="1" parent="1">
          <mxGeometry x="298" y="230" width="252" height="180" as="geometry" />
        </mxCell>
        <mxCell id="6zze8KN9016CIVqn-qtB-3" value="" style="shape=partialRectangle;collapsible=0;dropTarget=0;pointerEvents=0;fillColor=none;top=0;left=0;bottom=1;right=0;points=[[0,0.5],[1,0.5]];portConstraint=eastwest;" vertex="1" parent="6zze8KN9016CIVqn-qtB-2">
          <mxGeometry y="30" width="252" height="30" as="geometry" />
        </mxCell>
        <mxCell id="6zze8KN9016CIVqn-qtB-4" value="PK" style="shape=partialRectangle;connectable=0;fillColor=none;top=0;left=0;bottom=0;right=0;fontStyle=1;overflow=hidden;" vertex="1" parent="6zze8KN9016CIVqn-qtB-3">
          <mxGeometry width="30" height="30" as="geometry" />
        </mxCell>
        <mxCell id="6zze8KN9016CIVqn-qtB-5" value="id (int - auto increment - not null)" style="shape=partialRectangle;connectable=0;fillColor=none;top=0;left=0;bottom=0;right=0;align=left;spacingLeft=6;fontStyle=0;overflow=hidden;" vertex="1" parent="6zze8KN9016CIVqn-qtB-3">
          <mxGeometry x="30" width="222" height="30" as="geometry" />
        </mxCell>
        <mxCell id="6zze8KN9016CIVqn-qtB-6" value="" style="shape=partialRectangle;collapsible=0;dropTarget=0;pointerEvents=0;fillColor=none;top=0;left=0;bottom=0;right=0;points=[[0,0.5],[1,0.5]];portConstraint=eastwest;" vertex="1" parent="6zze8KN9016CIVqn-qtB-2">
          <mxGeometry y="60" width="252" height="30" as="geometry" />
        </mxCell>
        <mxCell id="6zze8KN9016CIVqn-qtB-7" value="" style="shape=partialRectangle;connectable=0;fillColor=none;top=0;left=0;bottom=0;right=0;editable=1;overflow=hidden;" vertex="1" parent="6zze8KN9016CIVqn-qtB-6">
          <mxGeometry width="30" height="30" as="geometry" />
        </mxCell>
        <mxCell id="6zze8KN9016CIVqn-qtB-8" value="nome (varchar(255) - not null)" style="shape=partialRectangle;connectable=0;top=0;left=0;bottom=0;right=0;align=left;spacingLeft=6;overflow=hidden;labelBorderColor=none;shadow=0;fillColor=none;" vertex="1" parent="6zze8KN9016CIVqn-qtB-6">
          <mxGeometry x="30" width="222" height="30" as="geometry" />
        </mxCell>
        <mxCell id="6zze8KN9016CIVqn-qtB-9" value="" style="shape=partialRectangle;collapsible=0;dropTarget=0;pointerEvents=0;fillColor=none;top=0;left=0;bottom=0;right=0;points=[[0,0.5],[1,0.5]];portConstraint=eastwest;" vertex="1" parent="6zze8KN9016CIVqn-qtB-2">
          <mxGeometry y="90" width="252" height="30" as="geometry" />
        </mxCell>
        <mxCell id="6zze8KN9016CIVqn-qtB-10" value="" style="shape=partialRectangle;connectable=0;fillColor=none;top=0;left=0;bottom=0;right=0;editable=1;overflow=hidden;" vertex="1" parent="6zze8KN9016CIVqn-qtB-9">
          <mxGeometry width="30" height="30" as="geometry" />
        </mxCell>
        <mxCell id="6zze8KN9016CIVqn-qtB-11" value="marca (varchar(255) - not null)" style="shape=partialRectangle;connectable=0;fillColor=none;top=0;left=0;bottom=0;right=0;align=left;spacingLeft=6;overflow=hidden;" vertex="1" parent="6zze8KN9016CIVqn-qtB-9">
          <mxGeometry x="30" width="222" height="30" as="geometry" />
        </mxCell>
        <mxCell id="6zze8KN9016CIVqn-qtB-12" value="" style="shape=partialRectangle;collapsible=0;dropTarget=0;pointerEvents=0;fillColor=none;top=0;left=0;bottom=0;right=0;points=[[0,0.5],[1,0.5]];portConstraint=eastwest;" vertex="1" parent="6zze8KN9016CIVqn-qtB-2">
          <mxGeometry y="120" width="252" height="30" as="geometry" />
        </mxCell>
        <mxCell id="6zze8KN9016CIVqn-qtB-13" value="" style="shape=partialRectangle;connectable=0;fillColor=none;top=0;left=0;bottom=0;right=0;editable=1;overflow=hidden;" vertex="1" parent="6zze8KN9016CIVqn-qtB-12">
          <mxGeometry width="30" height="30" as="geometry" />
        </mxCell>
        <mxCell id="6zze8KN9016CIVqn-qtB-14" value="preco (decimal(15, 2) - not null)" style="shape=partialRectangle;connectable=0;fillColor=none;top=0;left=0;bottom=0;right=0;align=left;spacingLeft=6;overflow=hidden;" vertex="1" parent="6zze8KN9016CIVqn-qtB-12">
          <mxGeometry x="30" width="222" height="30" as="geometry" />
        </mxCell>
        <mxCell id="6zze8KN9016CIVqn-qtB-15" value="quantidade_estoque (int - default(0))" style="shape=partialRectangle;connectable=0;fillColor=none;top=0;left=0;bottom=0;right=0;align=left;spacingLeft=6;overflow=hidden;" vertex="1" parent="1">
          <mxGeometry x="328" y="380" width="225" height="30" as="geometry" />
        </mxCell>
        <mxCell id="6zze8KN9016CIVqn-qtB-38" value="" style="line;strokeWidth=1;rotatable=0;dashed=0;labelPosition=right;align=left;verticalAlign=middle;spacingTop=0;spacingLeft=6;points=[];portConstraint=eastwest;shadow=0;fillColor=#2a2a2a;" vertex="1" parent="1">
          <mxGeometry x="298" y="310" width="252" height="20" as="geometry" />
        </mxCell>
        <mxCell id="6zze8KN9016CIVqn-qtB-39" value="" style="line;strokeWidth=1;rotatable=0;dashed=0;labelPosition=right;align=left;verticalAlign=middle;spacingTop=0;spacingLeft=6;points=[];portConstraint=eastwest;shadow=0;fillColor=#2a2a2a;" vertex="1" parent="1">
          <mxGeometry x="298" y="340" width="252" height="20" as="geometry" />
        </mxCell>
        <mxCell id="6zze8KN9016CIVqn-qtB-40" value="" style="line;strokeWidth=1;rotatable=0;dashed=0;labelPosition=right;align=left;verticalAlign=middle;spacingTop=0;spacingLeft=6;points=[];portConstraint=eastwest;shadow=0;fillColor=#2a2a2a;" vertex="1" parent="1">
          <mxGeometry x="298" y="370" width="252" height="20" as="geometry" />
        </mxCell>
      </root>
    </mxGraphModel>
  </diagram>
</mxfile>
